<svg version="1.1" id="Layer_1" xmlns="http://www.w3.org/2000/svg" xmlns:xlink="http://www.w3.org/1999/xlink" x="0px" y="0px"
	 width="100%" viewBox="0 0 122 124" enable-background="new 0 0 122 124" xml:space="preserve">
<path fill="#FE6364" opacity="1.000000" stroke="none" 
	d="
M15.109034,96.215576 
	C23.937210,84.657707 29.456415,71.994911 28.904655,57.389507 
	C28.500170,46.682545 24.810522,36.817287 18.961590,27.423491 
	C39.093670,2.361015 78.001289,0.710087 101.353737,22.445536 
	C122.543716,42.168274 124.441620,76.323425 108.206528,97.907166 
	C85.578239,127.990341 40.213982,128.683044 17.159679,98.844948 
	C16.549095,98.054703 15.914273,97.283188 15.109034,96.215576 
M45.758484,90.762543 
	C49.772629,94.155579 54.109722,96.613594 59.917221,95.804283 
	C59.917221,74.527840 59.917221,53.492611 59.917221,31.770525 
	C53.687538,33.997345 47.983734,36.188808 42.173111,38.046070 
	C39.443150,38.918655 38.665192,40.417801 38.700127,43.143852 
	C38.834435,53.624035 38.773331,64.106842 38.767262,74.588654 
	C38.763714,80.711166 40.776516,85.987045 45.758484,90.762543 
M70.985100,68.634590 
	C82.621902,63.665859 87.923248,53.899212 85.677483,41.337460 
	C85.506462,40.380905 84.707565,39.084404 83.884712,38.768471 
	C77.585434,36.349911 71.207809,34.135391 64.479729,31.723064 
	C64.479729,44.692211 64.479729,56.979248 64.479729,69.755547 
	C66.713249,69.404396 68.476067,69.127251 70.985100,68.634590 
z"/>
<path fill="#FFFDFC" opacity="1.000000" stroke="none" 
	d="
M45.499687,90.509689 
	C40.776516,85.987045 38.763714,80.711166 38.767262,74.588654 
	C38.773331,64.106842 38.834435,53.624035 38.700127,43.143852 
	C38.665192,40.417801 39.443150,38.918655 42.173111,38.046070 
	C47.983734,36.188808 53.687538,33.997345 59.917221,31.770525 
	C59.917221,53.492611 59.917221,74.527840 59.917221,95.804283 
	C54.109722,96.613594 49.772629,94.155579 45.499687,90.509689 
z"/>
<path fill="#FEFAF9" opacity="1.000000" stroke="none" 
	d="
M70.612000,68.742348 
	C68.476067,69.127251 66.713249,69.404396 64.479729,69.755547 
	C64.479729,56.979248 64.479729,44.692211 64.479729,31.723064 
	C71.207809,34.135391 77.585434,36.349911 83.884712,38.768471 
	C84.707565,39.084404 85.506462,40.380905 85.677483,41.337460 
	C87.923248,53.899212 82.621902,63.665859 70.612000,68.742348 
z"/>
</svg>